<svg width="16" height="16" viewBox="0 0 16 16" fill="none" xmlns="http://www.w3.org/2000/svg">
<g clip-path="url(#clip0_485_18872)">
<path d="M5.26659 13.3332C6.53897 13.9859 8.00264 14.1627 9.39384 13.8317C10.785 13.5007 12.0123 12.6838 12.8544 11.528C13.6966 10.3722 14.0982 8.95367 13.987 7.52798C13.8758 6.10228 13.259 4.76318 12.2478 3.752C11.2366 2.74081 9.89751 2.12404 8.47181 2.01281C7.04611 1.90159 5.62757 2.30323 4.4718 3.14537C3.31603 3.9875 2.49905 5.21474 2.16807 6.60594C1.83709 7.99714 2.01388 9.46082 2.66659 10.7332L1.33325 14.6665L5.26659 13.3332Z" stroke="#45556C" stroke-width="1.2" stroke-linecap="round" stroke-linejoin="round"/>
<path d="M6.05981 5.99989C6.21655 5.55434 6.52592 5.17863 6.93312 4.93931C7.34032 4.7 7.81908 4.61252 8.2846 4.69237C8.75012 4.77222 9.17236 5.01424 9.47653 5.37558C9.78071 5.73691 9.94718 6.19424 9.94648 6.66656C9.94648 7.99989 7.94648 8.66656 7.94648 8.66656" stroke="#45556C" stroke-width="1.2" stroke-linecap="round" stroke-linejoin="round"/>
<path d="M8 11.3333H8.0075" stroke="#45556C" stroke-width="1.2" stroke-linecap="round" stroke-linejoin="round"/>
</g>
<defs>
<clipPath id="clip0_485_18872">
<rect width="16" height="16" fill="white"/>
</clipPath>
</defs>
</svg>
