<svg width="13" height="13" viewBox="0 0 13 13" fill="none" xmlns="http://www.w3.org/2000/svg">
<path d="M11.988 6.2792H10.5723C10.3228 6.27866 10.08 6.35986 9.88108 6.51036C9.68212 6.66087 9.53794 6.8724 9.47058 7.11261L8.12912 11.8848C8.12048 11.9144 8.10245 11.9405 8.07775 11.959C8.05304 11.9775 8.023 11.9875 7.99212 11.9875C7.96124 11.9875 7.9312 11.9775 7.9065 11.959C7.8818 11.9405 7.86377 11.9144 7.85512 11.8848L4.70412 0.673612C4.69548 0.643969 4.67745 0.61793 4.65275 0.599403C4.62804 0.580877 4.598 0.570862 4.56712 0.570862C4.53624 0.570862 4.5062 0.580877 4.4815 0.599403C4.4568 0.61793 4.43877 0.643969 4.43012 0.673612L3.08866 5.44578C3.02157 5.68505 2.87824 5.89589 2.68044 6.0463C2.48264 6.19672 2.24116 6.27848 1.99266 6.2792H0.571289" stroke="white" stroke-width="1.14167" stroke-linecap="round" stroke-linejoin="round"/>
</svg>
