<svg width="19" height="18" viewBox="0 0 19 18" fill="none" xmlns="http://www.w3.org/2000/svg">
<g clip-path="url(#clip0_372_53527)">
<path d="M16.4723 8.56247C16.9052 8.56247 17.2606 8.24209 17.2174 7.85035C17.0366 6.21218 16.2386 4.6813 14.9587 3.51724C13.6788 2.35318 11.9957 1.62758 10.1949 1.46344C9.76351 1.42419 9.41211 1.74743 9.41211 2.1413V7.84964C9.41211 8.03888 9.49475 8.22037 9.64185 8.35419C9.78895 8.488 9.98846 8.56318 10.1965 8.56318L16.4723 8.56247Z" stroke="white" stroke-width="1.42708" stroke-linecap="round" stroke-linejoin="round"/>
<path d="M16.6375 11.3384C16.1385 12.4119 15.358 13.3579 14.3643 14.0936C13.3706 14.8293 12.1938 15.3324 10.937 15.5588C9.68017 15.7853 8.3815 15.7282 7.15452 15.3926C5.92754 15.057 4.80961 14.453 3.89848 13.6336C2.98734 12.8142 2.31074 11.8042 1.92783 10.6919C1.54491 9.57961 1.46734 8.39894 1.7019 7.2531C1.93645 6.10725 2.47599 5.03112 3.27335 4.11879C4.07071 3.20646 5.1016 2.4857 6.2759 2.01953" stroke="white" stroke-width="1.42708" stroke-linecap="round" stroke-linejoin="round"/>
</g>
<defs>
<clipPath id="clip0_372_53527">
<rect width="18.825" height="17.125" fill="white"/>
</clipPath>
</defs>
</svg>
