<svg width="18" height="18" viewBox="0 0 18 18" fill="none" xmlns="http://www.w3.org/2000/svg">
<path d="M15.9706 10.6829L15.8901 9.87368L15.8633 9.87613L15.8372 9.881L15.9706 10.6829ZM15.9706 10.6829L16.0519 11.4921L16.0788 11.4896L16.1048 11.4855L15.9706 10.6829ZM12.6851 15.1411L13.1999 14.5117L13.1934 14.5068L12.6851 15.1411ZM12.6851 15.1411L12.1703 15.7706L12.1768 15.7763L12.6851 15.1411ZM5.20644 15.1411L4.69166 14.5125L4.67864 14.523L4.66645 14.5336L5.20644 15.1411ZM5.20644 15.1411L5.72123 15.7714L5.73424 15.7608L5.74644 15.7494L5.20644 15.1411ZM1.9201 7.20866V6.39542H1.87944L1.83959 6.39948L1.9201 7.20866ZM1.9201 7.20866V8.02192H1.96076L2.00143 8.01785L1.9201 7.20866ZM11.4921 1.83878C11.4786 1.68235 11.4594 1.5264 11.4359 1.37116C11.4108 1.20026 11.3587 1.03444 11.2814 0.879953L9.83628 1.62652C9.81757 1.58992 9.82164 1.57691 9.83221 1.64116C9.84441 1.71353 9.85498 1.81438 9.87368 2.00143L11.4921 1.83878ZM11.5693 2.61136C11.6205 2.67805 11.6035 2.70814 11.575 2.54956C11.5482 2.39829 11.527 2.18603 11.4921 1.83878L9.87287 2.00061C9.9054 2.32103 9.93305 2.60892 9.97453 2.83826C10.0144 3.05784 10.0843 3.34654 10.2754 3.59702L11.5693 2.61136ZM11.5693 2.61136L10.2754 3.59702C10.4495 3.82542 10.6809 4.00367 10.9461 4.11366C11.2114 4.22365 11.501 4.26145 11.7856 4.22322L11.5693 2.61136ZM12.1695 2.11935C11.9872 2.27339 11.7998 2.42121 11.6075 2.56257C11.475 2.65446 11.4855 2.62193 11.5693 2.61136L11.7856 4.22322C12.0979 4.18093 12.3517 4.02642 12.5355 3.89792C12.7266 3.76618 12.9502 3.58238 13.1991 3.37826L12.1695 2.11935ZM12.9958 1.59073C12.832 1.64519 12.678 1.72535 12.5395 1.8282C12.4257 1.90953 12.298 2.01444 12.1695 2.11935L13.1991 3.37826C13.3446 3.25952 13.4235 3.19528 13.4837 3.15299C13.5366 3.11476 13.5292 3.12778 13.491 3.13998L12.9958 1.59073ZM14.1376 1.64766C13.7764 1.49115 13.3707 1.47092 12.9958 1.59073L13.491 3.13998L14.1376 1.64766ZM14.9069 2.25597C14.7974 2.14339 14.6843 2.03435 14.5678 1.92905C14.4399 1.81297 14.2944 1.71798 14.1367 1.64766L13.491 3.13998C13.4536 3.12371 13.4479 3.1107 13.4967 3.1538C13.552 3.2026 13.6244 3.27335 13.757 3.40591L14.9069 2.25597ZM15.6339 2.98302L14.9069 2.25597L13.757 3.40591L14.484 4.13295L15.6339 2.98302ZM16.2422 3.75235C16.1719 3.59465 16.0769 3.44916 15.9609 3.32133C15.8555 3.20509 15.7465 3.09226 15.6339 2.98302L14.484 4.13377C14.6166 4.26633 14.6873 4.33871 14.7361 4.39401C14.7792 4.4428 14.7662 4.43711 14.7499 4.3997L16.2422 3.75235ZM16.2992 4.89416C16.419 4.51921 16.3988 4.11353 16.2422 3.75235L14.7499 4.3997L16.2992 4.89416ZM15.7706 5.72042C15.8716 5.60023 15.9687 5.47682 16.0617 5.35039C16.1479 5.23003 16.2406 5.08039 16.2992 4.89416L14.7499 4.3997C14.7621 4.36148 14.7743 4.35334 14.7369 4.40702C14.6946 4.46639 14.6312 4.54527 14.5117 4.69084L15.7706 5.72042ZM15.2785 6.32141C15.268 6.40517 15.2354 6.41493 15.3273 6.28237C15.4144 6.15632 15.5494 5.99042 15.7706 5.72042L14.5117 4.69084C14.3083 4.9397 14.1237 5.16334 13.9912 5.35445C13.8635 5.53825 13.709 5.79198 13.6667 6.10427L15.2785 6.32141ZM15.2785 6.32141L13.6667 6.10427C13.6285 6.38887 13.6663 6.67851 13.7762 6.94377C13.8862 7.20902 14.0645 7.44043 14.2929 7.61448L15.2785 6.32141ZM16.0511 6.39867C15.8133 6.37878 15.5763 6.35084 15.3404 6.3149C15.1818 6.28644 15.2119 6.27017 15.2785 6.32141L14.2929 7.61448C14.5434 7.80559 14.8313 7.87553 15.0525 7.91538C15.281 7.95604 15.5689 7.98451 15.8893 8.01704L16.0511 6.39867ZM17.01 6.60849C16.8555 6.53122 16.6897 6.47907 16.5188 6.45397C16.3635 6.43052 16.2076 6.41208 16.0511 6.39867L15.8893 8.01704C16.0097 8.02761 16.1298 8.04117 16.2496 8.0577C16.3146 8.06908 16.3008 8.07315 16.2642 8.05445L17.01 6.60849ZM17.7768 7.45671C17.6323 7.09046 17.3598 6.78908 17.01 6.60849L16.265 8.05607L17.7768 7.45671ZM17.8907 8.43098C17.8907 8.26508 17.8907 8.09999 17.8818 7.96011C17.8735 7.78749 17.8378 7.61728 17.776 7.45589L16.265 8.05607C16.2504 8.01785 16.2553 8.00484 16.2601 8.0699C16.265 8.14309 16.265 8.24475 16.265 8.43261L17.8907 8.43098ZM17.8907 9.45893V8.43098H16.2642V9.45893H17.8907ZM17.7768 10.4332C17.8484 10.2518 17.872 10.0778 17.8818 9.92899C17.8907 9.78992 17.8907 9.62483 17.8907 9.45893H16.2642C16.2642 9.64679 16.2642 9.74844 16.2593 9.82164C16.2544 9.8867 16.2496 9.87368 16.2642 9.83546L17.7768 10.4332ZM17.01 11.2814C17.3598 11.1008 17.6323 10.7994 17.7768 10.4332L16.265 9.83628L17.01 11.2814ZM16.0511 11.4912C16.217 11.475 16.3805 11.4587 16.5188 11.4359C16.6651 11.4115 16.8359 11.3709 17.01 11.2814L16.265 9.83628C16.3008 9.81757 16.3146 9.82164 16.2504 9.83221C16.1307 9.84938 16.0106 9.86321 15.8901 9.87368L16.0511 11.4912ZM15.2794 11.5685C15.2119 11.6197 15.1818 11.6035 15.3404 11.575C15.4916 11.5482 15.7039 11.5262 16.0511 11.4912L15.8893 9.87287C15.5697 9.9054 15.281 9.93305 15.0525 9.97453C14.8321 10.0144 14.5434 10.0843 14.2929 10.2754L15.2794 11.5685ZM15.2794 11.5685L14.2929 10.2754C14.0645 10.4495 13.8862 10.6809 13.7762 10.9461C13.6663 11.2114 13.6285 11.501 13.6667 11.7856L15.2794 11.5685ZM15.7706 12.1687C15.6165 11.9867 15.4687 11.7995 15.3273 11.6075C15.2354 11.475 15.2688 11.4847 15.2794 11.5685L13.6667 11.7856C13.709 12.0979 13.8635 12.3517 13.992 12.5355C14.1245 12.7266 14.3083 12.9502 14.5117 13.1991L15.7706 12.1687ZM16.2992 12.9949C16.2446 12.8315 16.1645 12.6778 16.0617 12.5395C15.9804 12.4249 15.8755 12.298 15.7706 12.1687L14.5117 13.1991C14.6304 13.3446 14.6946 13.4227 14.7369 13.4829C14.7751 13.5358 14.7629 13.5292 14.7499 13.491L16.2992 12.9949ZM16.2422 14.1376C16.399 13.7761 16.4192 13.3701 16.2992 12.9949L14.7499 13.491L16.2422 14.1376ZM15.6339 14.9069C15.7519 14.789 15.8682 14.6735 15.9609 14.5678C16.0585 14.4555 16.1642 14.3165 16.2422 14.1367L14.7499 13.4902C14.7662 13.4528 14.7792 13.4479 14.7361 13.4967C14.6873 13.552 14.6166 13.6236 14.484 13.757L15.6339 14.9069ZM14.9069 15.6331L15.6339 14.9069L14.484 13.757L13.757 14.4832L14.9069 15.6331ZM14.1376 16.2422C14.2953 16.1717 14.4408 16.0764 14.5686 15.96C14.6735 15.8682 14.7898 15.751 14.9069 15.6331L13.757 14.4832C13.6726 14.5696 13.5858 14.6537 13.4967 14.7353C13.4479 14.7792 13.4536 14.7662 13.491 14.7499L14.1376 16.2422ZM12.9958 16.2992C13.3707 16.419 13.7764 16.3988 14.1376 16.2422L13.491 14.7499L12.9958 16.2992ZM12.1695 15.7706C12.298 15.8755 12.4249 15.9804 12.5395 16.0617C12.6599 16.1471 12.8095 16.2398 12.9958 16.2992L13.491 14.7499C13.5292 14.7621 13.5366 14.7743 13.4829 14.7369C13.3862 14.6645 13.2916 14.5894 13.1991 14.5117L12.1695 15.7706ZM11.5693 15.2794C11.4855 15.2672 11.475 15.2346 11.6075 15.3265C11.7336 15.4144 11.8987 15.5485 12.1687 15.7697L13.1991 14.5117C12.9502 14.3075 12.7266 14.1237 12.5355 13.9912C12.3517 13.8627 12.0979 13.709 11.7856 13.6667L11.5693 15.2794ZM11.5693 15.2794L11.7856 13.6667C11.501 13.6285 11.2114 13.6663 10.9461 13.7762C10.6809 13.8862 10.4495 14.0645 10.2754 14.2929L11.5693 15.2794ZM11.4912 16.0511C11.5262 15.7039 11.5482 15.4908 11.575 15.3404C11.6035 15.1818 11.6197 15.211 11.5685 15.2785L10.2754 14.2921C10.0843 14.5426 10.0144 14.8313 9.97453 15.0516C9.93387 15.281 9.90621 15.5689 9.87368 15.8893L11.4912 16.0511ZM11.2806 17.01C11.3701 16.8359 11.4107 16.6651 11.4351 16.5188C11.4595 16.3805 11.4742 16.217 11.4912 16.0511L9.87368 15.8893C9.86296 16.01 9.84885 16.1296 9.8314 16.2496C9.82082 16.3146 9.81676 16.3008 9.83546 16.2642L11.2806 17.01ZM10.434 17.7768C10.7996 17.632 11.1004 17.3595 11.2806 17.01L9.83628 16.265L10.434 17.7768ZM9.45811 17.8907C9.62483 17.8907 9.78992 17.8907 9.9298 17.8818C10.0778 17.872 10.2518 17.85 10.434 17.7768L9.83628 16.265C9.8745 16.2504 9.88751 16.2553 9.82245 16.2601C9.70162 16.2651 9.58067 16.2668 9.45974 16.265L9.45811 17.8907ZM8.43098 17.8907H9.45811L9.45893 16.2642H8.43098V17.8907ZM7.45671 17.7768C7.63806 17.8484 7.8121 17.872 7.96092 17.8818C8.09999 17.8907 8.26508 17.8907 8.43098 17.8907V16.2642C8.24312 16.2642 8.14146 16.2642 8.06827 16.2593C8.00321 16.2544 8.01622 16.2496 8.05445 16.2642L7.45671 17.7768ZM6.60849 17.01C6.78908 17.3598 7.09046 17.6323 7.45671 17.7768L8.05445 16.2642L6.60849 17.01ZM6.39867 16.0511C6.41493 16.217 6.4312 16.3805 6.45397 16.5188C6.47837 16.6651 6.51903 16.8359 6.60849 17.01L8.05607 16.265C8.07478 16.3008 8.07071 16.3146 8.06014 16.2504C8.04297 16.1307 8.02914 16.0106 8.01866 15.8901L6.39867 16.0511ZM6.32141 15.2785C6.27017 15.2119 6.28644 15.181 6.3149 15.3404C6.34174 15.4908 6.3637 15.7039 6.39867 16.0511L8.01704 15.8893C7.98451 15.5689 7.95685 15.281 7.91538 15.0516C7.87553 14.8321 7.80559 14.5434 7.61448 14.2929L6.32141 15.2785ZM6.32141 15.2785L7.61448 14.2929C7.44043 14.0645 7.20902 13.8862 6.94377 13.7762C6.67851 13.6663 6.38887 13.6285 6.10427 13.6667L6.32141 15.2785ZM5.72042 15.7706C5.99123 15.5494 6.15632 15.4144 6.28237 15.3273C6.41493 15.2354 6.40517 15.268 6.32141 15.2785L6.10427 13.6667C5.79198 13.709 5.53825 13.8635 5.35445 13.992C5.16334 14.1237 4.9397 14.3075 4.69084 14.5117L5.72042 15.7706ZM4.89416 16.2992C5.05787 16.2447 5.21187 16.1646 5.35039 16.0617C5.46424 15.9804 5.59192 15.8755 5.72042 15.7706L4.69166 14.5125C4.59889 14.5902 4.50479 14.6653 4.40783 14.7377C4.35497 14.776 4.36229 14.7638 4.40051 14.7507L4.89416 16.2992ZM3.75235 16.2422C4.11353 16.3988 4.51921 16.419 4.89416 16.2992L4.39889 14.7499L3.75235 16.2422ZM2.9822 15.6339C3.10013 15.7519 3.21642 15.8682 3.32214 15.9609C3.43356 16.0585 3.57262 16.165 3.75317 16.2431L4.39889 14.7499C4.4363 14.7662 4.44199 14.7792 4.39319 14.7361C4.30412 14.6545 4.21734 14.5704 4.13295 14.484L2.9822 15.6339ZM2.25597 14.9069L2.98302 15.6339L4.13295 14.484L3.40591 13.757L2.25597 14.9069ZM1.64766 14.1376C1.72492 14.3165 1.83146 14.4564 1.92905 14.5686C2.02176 14.6735 2.13805 14.7898 2.25597 14.9069L3.40591 13.757C3.31947 13.6726 3.2354 13.5858 3.1538 13.4967C3.1107 13.4479 3.12371 13.4536 3.13998 13.491L1.64766 14.1376ZM1.59073 12.9958C1.47092 13.3707 1.49115 13.7764 1.64766 14.1376L3.13998 13.491L1.59073 12.9958ZM2.11935 12.1695C2.01836 12.2897 1.92126 12.4131 1.8282 12.5395C1.72535 12.678 1.64519 12.832 1.59073 12.9958L3.13998 13.491C3.12696 13.5292 3.11558 13.5366 3.15299 13.4829C3.19528 13.4235 3.25871 13.3446 3.37826 13.1991L2.11935 12.1695ZM2.61055 11.5685C2.62193 11.4847 2.65446 11.475 2.56257 11.6075C2.47555 11.7336 2.34055 11.8995 2.11935 12.1695L3.37826 13.1991C3.58157 12.9502 3.76618 12.7266 3.89874 12.5355C4.02642 12.3517 4.18093 12.0979 4.22322 11.7856L2.61055 11.5685ZM2.61055 11.5685L4.22322 11.7856C4.26145 11.501 4.22365 11.2114 4.11366 10.9461C4.00367 10.6809 3.82542 10.4495 3.59702 10.2754L2.61055 11.5685ZM1.83796 11.4912C2.18603 11.5262 2.3991 11.5482 2.54956 11.575C2.70814 11.6035 2.67805 11.6197 2.61055 11.5685L3.59702 10.2754C3.34654 10.0843 3.05865 10.0144 2.83745 9.97453C2.60892 9.93387 2.32103 9.9054 1.9998 9.87287L1.83796 11.4912ZM0.879953 11.2814C1.05399 11.3709 1.22477 11.4115 1.37116 11.4359C1.50941 11.4587 1.67287 11.4758 1.83878 11.4921L1.9998 9.87287C1.87935 9.86267 1.76003 9.84911 1.64034 9.83221C1.57528 9.82082 1.58911 9.81676 1.6257 9.83546L0.879953 11.2814ZM0.113872 10.434C0.258411 10.8003 0.530895 11.1016 0.880766 11.2822L1.62652 9.83628L0.113872 10.434ZM1.65953e-05 9.45974C1.65953e-05 9.62564 1.66256e-05 9.79073 0.00896238 9.93061C0.0187214 10.0786 0.0414924 10.2527 0.114685 10.4348L1.62652 9.83546C1.64116 9.87368 1.63628 9.8867 1.63221 9.82164C1.62696 9.70108 1.62506 9.5804 1.62652 9.45974H1.65953e-05ZM1.65953e-05 8.43179V9.45974H1.62652V8.43179H1.65953e-05ZM0.113872 7.45671C0.0523459 7.61814 0.0169323 7.78834 0.00896238 7.96092C-0.000796625 8.1008 1.65953e-05 8.26589 1.65953e-05 8.43261H1.62652C1.62652 8.24393 1.62652 8.14228 1.63221 8.06908C1.63628 8.00402 1.64116 8.01704 1.62652 8.05526L0.113872 7.45671ZM0.880766 6.61011C0.531188 6.79031 0.258742 7.09107 0.113872 7.45671L1.62652 8.05526L0.880766 6.61011ZM1.83959 6.39867C1.67369 6.41575 1.51022 6.4312 1.37197 6.4556C1.22558 6.47999 1.0548 6.52066 0.880766 6.61011L1.62652 8.05526C1.58992 8.07396 1.57691 8.0699 1.64116 8.05932C1.76084 8.04215 1.88097 8.02832 2.00143 8.01785L1.83959 6.39867ZM2.61218 6.32222C2.67968 6.27099 2.70977 6.28725 2.55037 6.31572C2.39992 6.34255 2.18685 6.36451 1.83959 6.39948L2.00143 8.01785C2.32103 7.98532 2.60974 7.95767 2.83907 7.91619C3.05946 7.87634 3.34817 7.8064 3.59865 7.61529L2.61218 6.32222ZM2.61218 6.32222L3.59865 7.61529C3.8269 7.44115 4.00499 7.2097 4.11483 6.94445C4.22468 6.67921 4.26235 6.38961 4.22404 6.10508L2.61218 6.32222ZM2.12016 5.72123C2.34136 5.99123 2.47636 6.15713 2.56419 6.28319C2.65609 6.41575 2.62356 6.40599 2.61218 6.32222L4.22404 6.10508C4.18175 5.7928 4.02804 5.53988 3.89955 5.35527C3.76699 5.16415 3.58238 4.94051 3.37907 4.69166L2.12016 5.72123ZM1.59155 4.89416C1.65091 5.0812 1.74281 5.23003 1.82902 5.3512C1.91034 5.46506 2.01525 5.59274 2.12016 5.72123L3.37907 4.69166C3.30135 4.59889 3.22623 4.50479 3.1538 4.40783C3.11558 4.35497 3.12859 4.36148 3.14079 4.3997L1.59155 4.89416ZM1.64847 3.75317C1.49216 4.1141 1.47194 4.51945 1.59155 4.89416L3.14079 4.3997L1.64847 3.75317ZM2.25679 2.98302C2.13886 3.10094 2.02257 3.21642 1.92986 3.32214C1.81378 3.44997 1.7188 3.59547 1.64847 3.75317L3.14079 4.3997C3.12452 4.43711 3.11151 4.4428 3.15461 4.39319C3.20341 4.33789 3.27416 4.26633 3.40672 4.13295L2.25679 2.98302ZM2.98383 2.25679L2.25679 2.98302L3.40672 4.13295L4.13458 3.40672L2.98383 2.25679ZM3.75317 1.64766C3.59541 1.71823 3.44991 1.81349 3.32214 1.92986C3.2059 2.03518 3.09307 2.14421 2.98383 2.25679L4.13458 3.40672C4.26714 3.27335 4.33871 3.2026 4.39401 3.15461C4.4428 3.1107 4.43711 3.12371 4.3997 3.13998L3.75317 1.64766ZM4.89497 1.59073C4.52002 1.47092 4.11434 1.49115 3.75317 1.64766L4.3997 3.13998L4.89497 1.59073ZM5.72042 2.11935C5.59192 2.01444 5.46587 1.91034 5.3512 1.82902C5.21274 1.72588 5.05873 1.64544 4.89497 1.59073L4.3997 3.13998C4.36148 3.12778 4.35416 3.11558 4.40783 3.15299C4.4672 3.19609 4.54608 3.25952 4.69166 3.37907L5.72042 2.11935ZM6.32222 2.61136C6.40599 2.62275 6.41575 2.65528 6.28319 2.56338C6.09119 2.42201 5.90404 2.27419 5.72204 2.12016L4.69166 3.37907C4.94051 3.58238 5.16334 3.76618 5.35445 3.89955C5.53825 4.02723 5.79198 4.18093 6.10427 4.22322L6.32222 2.61136ZM6.32222 2.61136L6.10508 4.22322C6.38968 4.26145 6.67933 4.22365 6.94458 4.11366C7.20984 4.00367 7.44125 3.82542 7.61529 3.59702L6.32222 2.61136ZM6.39948 1.83878C6.36451 2.18685 6.34255 2.39992 6.31572 2.55037C6.28725 2.70895 6.27099 2.67886 6.32222 2.61136L7.61529 3.59702C7.8064 3.34654 7.87634 3.05865 7.91619 2.83826C7.95686 2.60974 7.98613 2.32103 8.01785 2.00061L6.39948 1.83878ZM6.6093 0.880766C6.53204 1.03526 6.47988 1.20107 6.45478 1.37197C6.43201 1.51022 6.41575 1.67369 6.39948 1.83959L8.01785 2.00061C8.02843 1.8802 8.04198 1.76089 8.05851 1.64116C8.0699 1.5761 8.07396 1.59073 8.05526 1.62652L6.6093 0.880766ZM7.45752 0.113872C7.09128 0.258411 6.7899 0.530895 6.6093 0.880766L8.05526 1.62652L7.45752 0.113872ZM8.43179 1.65953e-05C8.26589 1.65953e-05 8.1008 1.66256e-05 7.96092 0.00896238C7.78834 0.0169323 7.61814 0.0523459 7.45671 0.113872L8.05607 1.62652C8.01785 1.64116 8.00484 1.63628 8.0699 1.63221C8.14309 1.62733 8.24475 1.62652 8.43261 1.62652L8.43179 1.65953e-05ZM9.45974 1.65953e-05H8.43179V1.62652H9.45974V1.65953e-05ZM10.434 0.113872C10.2726 0.0523459 10.1024 0.0169323 9.9298 0.00896238C9.79155 -0.000796625 9.62646 1.65953e-05 9.46055 1.65953e-05V1.62652C9.64842 1.62652 9.75007 1.62652 9.82326 1.63221C9.88832 1.63628 9.8745 1.64116 9.83628 1.62652L10.434 0.113872ZM11.2822 0.880766C11.1016 0.530895 10.8003 0.258411 10.434 0.113872L9.83628 1.62652L11.2822 0.880766ZM11.3855 8.94577C11.3855 9.59283 11.1285 10.2134 10.6709 10.6709C10.2134 11.1285 9.59283 11.3855 8.94577 11.3855V13.012C10.0242 13.012 11.0585 12.5836 11.821 11.821C12.5836 11.0585 13.012 10.0242 13.012 8.94577H11.3855ZM8.94577 6.50602C9.59283 6.50602 10.2134 6.76306 10.6709 7.2206C11.1285 7.67814 11.3855 8.29871 11.3855 8.94577H13.012C13.012 7.86733 12.5836 6.83306 11.821 6.07049C11.0585 5.30792 10.0242 4.87952 8.94577 4.87952V6.50602ZM6.50602 8.94577C6.50602 8.29871 6.76306 7.67814 7.2206 7.2206C7.67814 6.76306 8.29871 6.50602 8.94577 6.50602V4.87952C7.86733 4.87952 6.83306 5.30792 6.07049 6.07049C5.30792 6.83306 4.87952 7.86733 4.87952 8.94577H6.50602ZM8.94577 11.3855C8.29871 11.3855 7.67814 11.1285 7.2206 10.6709C6.76306 10.2134 6.50602 9.59283 6.50602 8.94577H4.87952C4.87952 10.0242 5.30792 11.0585 6.07049 11.821C6.83306 12.5836 7.86733 13.012 8.94577 13.012V11.3855Z" fill="#00ACFD"/>
</svg>
