<svg width="20" height="20" viewBox="0 0 20 20" fill="none" xmlns="http://www.w3.org/2000/svg">
<path d="M17.4993 10.1833C17.4993 5.60833 13.9493 2.5 9.99935 2.5C6.09102 2.5 2.49935 5.54167 2.49935 10.2333C1.99935 10.5167 1.66602 11.05 1.66602 11.6667V13.3333C1.66602 14.25 2.41602 15 3.33268 15H4.16602V9.91667C4.16602 6.69167 6.77435 4.08333 9.99935 4.08333C13.2243 4.08333 15.8327 6.69167 15.8327 9.91667V15.8333H9.16602V17.5H15.8327C16.7493 17.5 17.4993 16.75 17.4993 15.8333V14.8167C17.991 14.5583 18.3327 14.05 18.3327 13.45V11.5333C18.3327 10.95 17.991 10.4417 17.4993 10.1833Z" fill="#1E1E1E"/>
<path d="M7.49935 11.6667C7.95959 11.6667 8.33268 11.2936 8.33268 10.8333C8.33268 10.3731 7.95959 10 7.49935 10C7.03911 10 6.66602 10.3731 6.66602 10.8333C6.66602 11.2936 7.03911 11.6667 7.49935 11.6667Z" fill="#1E1E1E"/>
<path d="M12.4993 11.6667C12.9596 11.6667 13.3327 11.2936 13.3327 10.8333C13.3327 10.3731 12.9596 10 12.4993 10C12.0391 10 11.666 10.3731 11.666 10.8333C11.666 11.2936 12.0391 11.6667 12.4993 11.6667Z" fill="#1E1E1E"/>
<path d="M14.9994 9.19167C14.8007 8.02011 14.1939 6.95664 13.2864 6.18948C12.379 5.42233 11.2294 5.00098 10.0411 5C7.51607 5 4.7994 7.09167 5.01607 10.375C6.04389 9.95481 6.95166 9.28665 7.65836 8.43018C8.36506 7.5737 8.84869 6.55557 9.06607 5.46667C10.1577 7.65833 12.3994 9.16667 14.9994 9.19167Z" fill="#1E1E1E"/>
</svg>
