<svg width="20" height="20" viewBox="0 0 20 20" fill="none" xmlns="http://www.w3.org/2000/svg">
<path d="M3.33337 6.66669C3.33337 4.31002 3.33337 3.13085 4.06587 2.39919C4.79754 1.66669 5.97671 1.66669 8.33337 1.66669H11.6667C14.0234 1.66669 15.2025 1.66669 15.9342 2.39919C16.6667 3.13085 16.6667 4.31002 16.6667 6.66669V13.3334C16.6667 15.69 16.6667 16.8692 15.9342 17.6009C15.2025 18.3334 14.0234 18.3334 11.6667 18.3334H8.33337C5.97671 18.3334 4.79754 18.3334 4.06587 17.6009C3.33337 16.8692 3.33337 15.69 3.33337 13.3334V6.66669Z" stroke="#1E1E1E" stroke-width="1.25"/>
<path d="M16.5817 13.3334H6.58171C5.80671 13.3334 5.41921 13.3334 5.10087 13.4184C4.67697 13.532 4.29045 13.7553 3.98019 14.0657C3.66992 14.3761 3.44684 14.7627 3.33337 15.1867" stroke="#1E1E1E" stroke-width="1.25"/>
<path d="M6.66675 5.83337H13.3334M6.66675 8.75004H10.8334" stroke="#1E1E1E" stroke-width="1.25" stroke-linecap="round"/>
</svg>
