<svg width="21" height="21" viewBox="0 0 21 21" fill="none" xmlns="http://www.w3.org/2000/svg">
<path d="M13.7004 17.9814V16.2689C13.7004 15.3606 13.3395 14.4894 12.6972 13.8471C12.0549 13.2048 11.1838 12.8439 10.2754 12.8439H5.13789C4.22952 12.8439 3.35836 13.2048 2.71605 13.8471C2.07374 14.4894 1.71289 15.3606 1.71289 16.2689V17.9814" stroke="white" stroke-width="1.7125" stroke-linecap="round" stroke-linejoin="round"/>
<path d="M7.70625 9.41894C9.59783 9.41894 11.1312 7.88551 11.1312 5.99394C11.1312 4.10236 9.59783 2.56894 7.70625 2.56894C5.81467 2.56894 4.28125 4.10236 4.28125 5.99394C4.28125 7.88551 5.81467 9.41894 7.70625 9.41894Z" stroke="white" stroke-width="1.7125" stroke-linecap="round" stroke-linejoin="round"/>
<path d="M16.2686 6.85019V11.9877" stroke="white" stroke-width="1.7125" stroke-linecap="round" stroke-linejoin="round"/>
<path d="M18.8377 9.41895H13.7002" stroke="white" stroke-width="1.7125" stroke-linecap="round" stroke-linejoin="round"/>
</svg>
