<svg width="12" height="12" viewBox="0 0 12 12" fill="none" xmlns="http://www.w3.org/2000/svg">
<g clip-path="url(#clip0_332_3031)">
<path d="M4.65769 7.05487C4.61585 6.89267 4.53131 6.74465 4.41286 6.6262C4.29442 6.50776 4.1464 6.42321 3.9842 6.38137L1.10883 5.63992C1.05977 5.62599 1.0166 5.59645 0.985855 5.55576C0.955111 5.51508 0.938477 5.46547 0.938477 5.41448C0.938477 5.36349 0.955111 5.31388 0.985855 5.2732C1.0166 5.23251 1.05977 5.20297 1.10883 5.18904L3.9842 4.44712C4.14634 4.40532 4.29432 4.32084 4.41276 4.20249C4.5312 4.08413 4.61578 3.9362 4.65769 3.77409L5.39915 0.898725C5.41293 0.849475 5.44245 0.806086 5.48319 0.775178C5.52394 0.744269 5.57368 0.727539 5.62482 0.727539C5.67596 0.727539 5.7257 0.744269 5.76645 0.775178C5.80719 0.806086 5.83671 0.849475 5.85049 0.898725L6.59148 3.77409C6.63332 3.93629 6.71786 4.08431 6.83631 4.20276C6.95476 4.3212 7.10278 4.40575 7.26498 4.44759L10.1403 5.18858C10.1898 5.20221 10.2334 5.2317 10.2645 5.27251C10.2955 5.31331 10.3124 5.36319 10.3124 5.41448C10.3124 5.46577 10.2955 5.51565 10.2645 5.55645C10.2334 5.59726 10.1898 5.62675 10.1403 5.64039L7.26498 6.38137C7.10278 6.42321 6.95476 6.50776 6.83631 6.6262C6.71786 6.74465 6.63332 6.89267 6.59148 7.05487L5.85002 9.93024C5.83624 9.97949 5.80672 10.0229 5.76598 10.0538C5.72523 10.0847 5.67549 10.1014 5.62435 10.1014C5.57321 10.1014 5.52347 10.0847 5.48273 10.0538C5.44198 10.0229 5.41246 9.97949 5.39868 9.93024L4.65769 7.05487Z" stroke="white" stroke-width="0.937365" stroke-linecap="round" stroke-linejoin="round"/>
<path d="M9.37451 1.19629V3.07102" stroke="white" stroke-width="0.937365" stroke-linecap="round" stroke-linejoin="round"/>
<path d="M10.3108 2.13379H8.43604" stroke="white" stroke-width="0.937365" stroke-linecap="round" stroke-linejoin="round"/>
<path d="M1.87354 7.75879V8.69615" stroke="white" stroke-width="0.937365" stroke-linecap="round" stroke-linejoin="round"/>
<path d="M2.34313 8.22754H1.40576" stroke="white" stroke-width="0.937365" stroke-linecap="round" stroke-linejoin="round"/>
</g>
<defs>
<clipPath id="clip0_332_3031">
<rect width="11.2484" height="11.2484" fill="white"/>
</clipPath>
</defs>
</svg>
