<svg width="19" height="19" viewBox="0 0 19 19" fill="none" xmlns="http://www.w3.org/2000/svg">
<g clip-path="url(#clip0_390_59071)">
<path d="M3.16602 1.61377V16.8915L4.74935 16.1277L6.33268 16.8915L7.91602 16.1277L9.49935 16.8915L11.0827 16.1277L12.666 16.8915L14.2493 16.1277L15.8327 16.8915V1.61377L14.2493 2.37766L12.666 1.61377L11.0827 2.37766L9.49935 1.61377L7.91602 2.37766L6.33268 1.61377L4.74935 2.37766L3.16602 1.61377Z" stroke="white" stroke-width="1.52778" stroke-linecap="round" stroke-linejoin="round"/>
<path d="M12.6654 6.19727H7.91536C7.49544 6.19727 7.09271 6.35823 6.79578 6.64474C6.49885 6.93126 6.33203 7.31985 6.33203 7.72504C6.33203 8.13024 6.49885 8.51883 6.79578 8.80535C7.09271 9.09186 7.49544 9.25282 7.91536 9.25282H11.082C11.502 9.25282 11.9047 9.41378 12.2016 9.7003C12.4985 9.98681 12.6654 10.3754 12.6654 10.7806C12.6654 11.1858 12.4985 11.5744 12.2016 11.8609C11.9047 12.1474 11.502 12.3084 11.082 12.3084H6.33203" stroke="white" stroke-width="1.52778" stroke-linecap="round" stroke-linejoin="round"/>
<path d="M9.5 13.454V5.05127" stroke="white" stroke-width="1.52778" stroke-linecap="round" stroke-linejoin="round"/>
</g>
<defs>
<clipPath id="clip0_390_59071">
<rect width="19" height="18.3333" fill="white"/>
</clipPath>
</defs>
</svg>
