<svg width="35" height="35" viewBox="0 0 35 35" fill="none" xmlns="http://www.w3.org/2000/svg">
<path d="M5.70898 2.854V31.3957L8.56315 29.9686L11.4173 31.3957L14.2715 29.9686L17.1257 31.3957L19.9798 29.9686L22.834 31.3957L25.6882 29.9686L28.5423 31.3957V2.854L25.6882 4.28109L22.834 2.854L19.9798 4.28109L17.1257 2.854L14.2715 4.28109L11.4173 2.854L8.56315 4.28109L5.70898 2.854Z" stroke="#1E1E1E" stroke-width="2.85417" stroke-linecap="round" stroke-linejoin="round"/>
<path d="M22.8327 11.4165H14.2702C13.5132 11.4165 12.7872 11.7172 12.252 12.2525C11.7167 12.7877 11.416 13.5137 11.416 14.2707C11.416 15.0276 11.7167 15.7536 12.252 16.2889C12.7872 16.8241 13.5132 17.1248 14.2702 17.1248H19.9785C20.7355 17.1248 21.4615 17.4255 21.9967 17.9608C22.532 18.4961 22.8327 19.222 22.8327 19.979C22.8327 20.736 22.532 21.4619 21.9967 21.9972C21.4615 22.5325 20.7355 22.8332 19.9785 22.8332H11.416" stroke="#1E1E1E" stroke-width="2.85417" stroke-linecap="round" stroke-linejoin="round"/>
<path d="M17.125 24.9738V9.27588" stroke="#1E1E1E" stroke-width="2.85417" stroke-linecap="round" stroke-linejoin="round"/>
</svg>
